<svg t="1698803905092" class="icon" viewBox="0 0 1024 1024" version="1.1" xmlns="http://www.w3.org/2000/svg" p-id="12547" width="200" height="200"><path d="M36.977778 179.2h947.2v631.466667H36.977778z" fill="#CF281B" p-id="12548"></path><path d="M196.266667 241.777778l-28.444445 91.022222 45.511111 14.222222-17.066666-105.244444z m0 0" fill="#F4DB26" p-id="12549"></path><path d="M196.266667 241.777778l28.444444 91.022222-45.511111 14.222222 17.066667-105.244444z m0 0" fill="#F4DB26" p-id="12550"></path><path d="M287.288889 307.2H190.577778v48.355556l96.711111-48.355556z m0 0" fill="#F4DB26" p-id="12551"></path><path d="M287.288889 307.2l-76.8 56.888889-28.444445-36.977778 105.244445-19.911111z m0 0" fill="#F4DB26" p-id="12552"></path><path d="M105.244444 307.2l76.8 56.888889 28.444445-36.977778-105.244445-19.911111z m0 0" fill="#F4DB26" p-id="12553"></path><path d="M105.244444 307.2H199.111111v48.355556l-93.866667-48.355556z m0 0" fill="#F4DB26" p-id="12554"></path><path d="M250.311111 415.288889l-28.444444-91.022222-45.511111 14.222222 73.955555 76.8z m0 0" fill="#F4DB26" p-id="12555"></path><path d="M250.311111 415.288889l-76.8-56.888889 28.444445-36.977778 48.355555 93.866667z m0 0" fill="#F4DB26" p-id="12556"></path><path d="M139.377778 415.288889l76.8-56.888889-28.444445-36.977778-48.355555 93.866667z m0 0" fill="#F4DB26" p-id="12557"></path><path d="M139.377778 415.288889l28.444444-91.022222 45.511111 14.222222-73.955555 76.8z m187.733333-156.444445l31.288889-5.688888-2.844444-14.222223-28.444445 19.911111z m0 0" fill="#F4DB26" p-id="12558"></path><path d="M327.111111 258.844444l19.911111-22.755555 11.377778 11.377778-31.288889 11.377777z m0 0" fill="#F4DB26" p-id="12559"></path><path d="M329.955556 221.866667l17.066666 28.444444 14.222222-8.533333-31.288888-19.911111z m0 0" fill="#F4DB26" p-id="12560"></path><path d="M329.955556 221.866667l28.444444 11.377777-5.688889 14.222223-22.755555-25.6z m0 0" fill="#F4DB26" p-id="12561"></path><path d="M361.244444 273.066667l2.844445-31.288889h-17.066667l14.222222 31.288889z m0 0" fill="#F4DB26" p-id="12562"></path><path d="M361.244444 273.066667l-17.066666-28.444445 14.222222-8.533333 2.844444 36.977778z m0 0" fill="#F4DB26" p-id="12563"></path><path d="M366.933333 213.333333l-19.911111 22.755556 11.377778 11.377778 8.533333-34.133334z m0 0" fill="#F4DB26" p-id="12564"></path><path d="M366.933333 213.333333l-2.844444 31.288889h-17.066667l19.911111-31.288889z m0 0" fill="#F4DB26" p-id="12565"></path><path d="M384 244.622222l-28.444444-11.377778-5.688889 14.222223 34.133333-2.844445z m0 0" fill="#F4DB26" p-id="12566"></path><path d="M384 244.622222l-31.288889 5.688889-2.844444-14.222222 34.133333 8.533333z m2.844444 65.422222l31.288889 5.688889 2.844445-14.222222-34.133334 8.533333z m0 0" fill="#F4DB26" p-id="12567"></path><path d="M386.844444 310.044444l28.444445-14.222222 5.688889 14.222222h-34.133334z m0 0" fill="#F4DB26" p-id="12568"></path><path d="M403.911111 278.755556l5.688889 31.288888 14.222222-2.844444-19.911111-28.444444z m0 0" fill="#F4DB26" p-id="12569"></path><path d="M403.911111 278.755556l22.755556 22.755555-11.377778 11.377778-11.377778-34.133333z m0 0" fill="#F4DB26" p-id="12570"></path><path d="M412.444444 338.488889l14.222223-28.444445-14.222223-8.533333v36.977778z m0 0" fill="#F4DB26" p-id="12571"></path><path d="M412.444444 338.488889l-5.688888-31.288889 14.222222-2.844444-8.533334 34.133333z m0 0" fill="#F4DB26" p-id="12572"></path><path d="M438.044444 284.444444l-28.444444 14.222223 5.688889 14.222222 22.755555-28.444445z m0 0" fill="#F4DB26" p-id="12573"></path><path d="M438.044444 284.444444l-14.222222 28.444445-14.222222-8.533333 28.444444-19.911112z m0 0" fill="#F4DB26" p-id="12574"></path><path d="M443.733333 321.422222l-22.755555-22.755555-11.377778 11.377777 34.133333 11.377778z m0 0" fill="#F4DB26" p-id="12575"></path><path d="M443.733333 321.422222l-31.288889-5.688889 2.844445-14.222222 28.444444 19.911111z m-56.888889 71.111111l25.6 17.066667 8.533334-14.222222-34.133334-2.844445z m0 0" fill="#F4DB26" p-id="12576"></path><path d="M386.844444 392.533333h31.288889v17.066667l-31.288889-17.066667z m0 0" fill="#F4DB26" p-id="12577"></path><path d="M415.288889 369.777778l-8.533333 28.444444 14.222222 5.688889-5.688889-34.133333z m0 0" fill="#F4DB26" p-id="12578"></path><path d="M415.288889 369.777778l11.377778 28.444444-14.222223 5.688889 2.844445-34.133333z m0 0" fill="#F4DB26" p-id="12579"></path><path d="M398.222222 426.666667l25.6-19.911111-8.533333-11.377778L398.222222 426.666667z m0 0" fill="#F4DB26" p-id="12580"></path><path d="M398.222222 426.666667l8.533334-31.288889 14.222222 5.688889-22.755556 25.6z m0 0" fill="#F4DB26" p-id="12581"></path><path d="M446.577778 389.688889h-31.288889v17.066667l31.288889-17.066667z m0 0" fill="#F4DB26" p-id="12582"></path><path d="M446.577778 389.688889l-25.6 19.911111-8.533334-11.377778 34.133334-8.533333z m0 0" fill="#F4DB26" p-id="12583"></path><path d="M435.2 426.666667l-11.377778-28.444445-14.222222 5.688889 25.6 22.755556z m0 0" fill="#F4DB26" p-id="12584"></path><path d="M435.2 426.666667l-25.6-17.066667 8.533333-14.222222 17.066667 31.288889z m0 0M329.955556 443.733333l17.066666 25.6 14.222222-8.533333-31.288888-17.066667z m0 0" fill="#F4DB26" p-id="12585"></path><path d="M329.955556 443.733333l28.444444 11.377778-5.688889 14.222222-22.755555-25.6z m0 0" fill="#F4DB26" p-id="12586"></path><path d="M364.088889 435.2l-19.911111 25.6 11.377778 8.533333 8.533333-34.133333z m0 0" fill="#F4DB26" p-id="12587"></path><path d="M364.088889 435.2l-2.844445 31.288889h-17.066666l19.911111-31.288889z m0 0" fill="#F4DB26" p-id="12588"></path><path d="M327.111111 480.711111l31.288889-8.533333-2.844444-14.222222-28.444445 22.755555z m0 0" fill="#F4DB26" p-id="12589"></path><path d="M327.111111 480.711111l19.911111-25.6 11.377778 8.533333-31.288889 17.066667z m0 0" fill="#F4DB26" p-id="12590"></path><path d="M327.111111 443.733333l17.066667 25.6 14.222222-8.533333-31.288889-17.066667z m0 0" fill="#F4DB26" p-id="12591"></path><path d="M327.111111 443.733333l28.444445 11.377778-5.688889 14.222222-22.755556-25.6z m0 0" fill="#F4DB26" p-id="12592"></path><path d="M364.088889 435.2l-19.911111 22.755556 11.377778 11.377777 8.533333-34.133333z m0 0" fill="#F4DB26" p-id="12593"></path><path d="M364.088889 435.2l-2.844445 31.288889h-17.066666l19.911111-31.288889z m0 0" fill="#F4DB26" p-id="12594"></path><path d="M384 466.488889l-28.444444-11.377778-5.688889 14.222222 34.133333-2.844444z m0 0" fill="#F4DB26" p-id="12595"></path><path d="M384 466.488889l-31.288889 8.533333-2.844444-14.222222 34.133333 5.688889z m0 0" fill="#F4DB26" p-id="12596"></path><path d="M361.244444 494.933333l2.844445-31.288889h-17.066667l14.222222 31.288889z m0 0" fill="#F4DB26" p-id="12597"></path><path d="M361.244444 494.933333l-17.066666-25.6 14.222222-8.533333 2.844444 34.133333z m0 0" fill="#F4DB26" p-id="12598"></path></svg>
